<mxfile host="app.diagrams.net" modified="2021-08-31T06:19:01.457Z" agent="5.0 (Windows NT 10.0; Win64; x64) AppleWebKit/537.36 (KHTML, like Gecko) Chrome/92.0.4515.159 Safari/537.36" etag="n0GXKS4Cyaqy5oRAyTo4" version="15.0.3" type="github">
  <diagram id="Sex3N4eBaYYD5BWyMDXe" name="Page-1">
    <mxGraphModel dx="1021" dy="567" grid="1" gridSize="10" guides="1" tooltips="1" connect="1" arrows="1" fold="1" page="1" pageScale="1" pageWidth="850" pageHeight="1100" math="0" shadow="0">
      <root>
        <mxCell id="0" />
        <mxCell id="1" parent="0" />
        <mxCell id="WxAXNizd0CbYhBNLPztv-23" style="edgeStyle=orthogonalEdgeStyle;rounded=0;orthogonalLoop=1;jettySize=auto;html=1;exitX=0.5;exitY=1;exitDx=0;exitDy=0;" edge="1" parent="1" source="WxAXNizd0CbYhBNLPztv-1" target="WxAXNizd0CbYhBNLPztv-2">
          <mxGeometry relative="1" as="geometry" />
        </mxCell>
        <mxCell id="WxAXNizd0CbYhBNLPztv-1" value="Start" style="ellipse;whiteSpace=wrap;html=1;" vertex="1" parent="1">
          <mxGeometry x="200" y="50" width="120" height="80" as="geometry" />
        </mxCell>
        <mxCell id="WxAXNizd0CbYhBNLPztv-21" style="edgeStyle=orthogonalEdgeStyle;rounded=0;orthogonalLoop=1;jettySize=auto;html=1;exitX=0.5;exitY=1;exitDx=0;exitDy=0;" edge="1" parent="1" source="WxAXNizd0CbYhBNLPztv-2" target="WxAXNizd0CbYhBNLPztv-3">
          <mxGeometry relative="1" as="geometry" />
        </mxCell>
        <mxCell id="WxAXNizd0CbYhBNLPztv-2" value="clean cookies()" style="rounded=1;whiteSpace=wrap;html=1;" vertex="1" parent="1">
          <mxGeometry x="200" y="160" width="120" height="60" as="geometry" />
        </mxCell>
        <mxCell id="WxAXNizd0CbYhBNLPztv-20" style="edgeStyle=orthogonalEdgeStyle;rounded=0;orthogonalLoop=1;jettySize=auto;html=1;exitX=1;exitY=0.5;exitDx=0;exitDy=0;entryX=0;entryY=0.5;entryDx=0;entryDy=0;" edge="1" parent="1" source="WxAXNizd0CbYhBNLPztv-3" target="WxAXNizd0CbYhBNLPztv-4">
          <mxGeometry relative="1" as="geometry" />
        </mxCell>
        <mxCell id="WxAXNizd0CbYhBNLPztv-3" value="getLogin()" style="rounded=1;whiteSpace=wrap;html=1;" vertex="1" parent="1">
          <mxGeometry x="200" y="230" width="120" height="60" as="geometry" />
        </mxCell>
        <mxCell id="WxAXNizd0CbYhBNLPztv-18" style="edgeStyle=orthogonalEdgeStyle;rounded=0;orthogonalLoop=1;jettySize=auto;html=1;exitX=0.5;exitY=1;exitDx=0;exitDy=0;entryX=0;entryY=0.5;entryDx=0;entryDy=0;" edge="1" parent="1" source="WxAXNizd0CbYhBNLPztv-4" target="WxAXNizd0CbYhBNLPztv-11">
          <mxGeometry relative="1" as="geometry" />
        </mxCell>
        <mxCell id="WxAXNizd0CbYhBNLPztv-19" style="edgeStyle=orthogonalEdgeStyle;rounded=0;orthogonalLoop=1;jettySize=auto;html=1;exitX=0.5;exitY=0;exitDx=0;exitDy=0;entryX=0;entryY=0.5;entryDx=0;entryDy=0;" edge="1" parent="1" source="WxAXNizd0CbYhBNLPztv-4" target="WxAXNizd0CbYhBNLPztv-10">
          <mxGeometry relative="1" as="geometry" />
        </mxCell>
        <mxCell id="WxAXNizd0CbYhBNLPztv-4" value="changeDevice()" style="rhombus;whiteSpace=wrap;html=1;" vertex="1" parent="1">
          <mxGeometry x="380" y="210" width="100" height="90" as="geometry" />
        </mxCell>
        <mxCell id="WxAXNizd0CbYhBNLPztv-15" style="edgeStyle=orthogonalEdgeStyle;rounded=0;orthogonalLoop=1;jettySize=auto;html=1;exitX=1;exitY=0.75;exitDx=0;exitDy=0;entryX=0;entryY=0.5;entryDx=0;entryDy=0;" edge="1" parent="1" source="WxAXNizd0CbYhBNLPztv-10" target="WxAXNizd0CbYhBNLPztv-14">
          <mxGeometry relative="1" as="geometry" />
        </mxCell>
        <mxCell id="WxAXNizd0CbYhBNLPztv-10" value="ACK=OK" style="rounded=0;whiteSpace=wrap;html=1;" vertex="1" parent="1">
          <mxGeometry x="450" y="140" width="120" height="60" as="geometry" />
        </mxCell>
        <mxCell id="WxAXNizd0CbYhBNLPztv-16" style="edgeStyle=orthogonalEdgeStyle;rounded=0;orthogonalLoop=1;jettySize=auto;html=1;exitX=1;exitY=0.5;exitDx=0;exitDy=0;entryX=0;entryY=0.5;entryDx=0;entryDy=0;" edge="1" parent="1" source="WxAXNizd0CbYhBNLPztv-11" target="WxAXNizd0CbYhBNLPztv-12">
          <mxGeometry relative="1" as="geometry" />
        </mxCell>
        <mxCell id="WxAXNizd0CbYhBNLPztv-17" style="edgeStyle=orthogonalEdgeStyle;rounded=0;orthogonalLoop=1;jettySize=auto;html=1;exitX=1;exitY=0.75;exitDx=0;exitDy=0;entryX=0;entryY=0.5;entryDx=0;entryDy=0;" edge="1" parent="1" source="WxAXNizd0CbYhBNLPztv-11" target="WxAXNizd0CbYhBNLPztv-13">
          <mxGeometry relative="1" as="geometry" />
        </mxCell>
        <mxCell id="WxAXNizd0CbYhBNLPztv-11" value="ACK=NOK" style="rounded=0;whiteSpace=wrap;html=1;" vertex="1" parent="1">
          <mxGeometry x="460" y="300" width="120" height="60" as="geometry" />
        </mxCell>
        <mxCell id="WxAXNizd0CbYhBNLPztv-28" style="edgeStyle=orthogonalEdgeStyle;rounded=0;orthogonalLoop=1;jettySize=auto;html=1;exitX=1;exitY=0.5;exitDx=0;exitDy=0;entryX=0;entryY=0;entryDx=0;entryDy=0;" edge="1" parent="1" source="WxAXNizd0CbYhBNLPztv-12" target="WxAXNizd0CbYhBNLPztv-4">
          <mxGeometry relative="1" as="geometry">
            <Array as="points">
              <mxPoint x="750" y="270" />
              <mxPoint x="750" y="60" />
              <mxPoint x="405" y="60" />
            </Array>
          </mxGeometry>
        </mxCell>
        <mxCell id="WxAXNizd0CbYhBNLPztv-12" value="RC=02&lt;br&gt;(FAILED/&lt;br&gt;Login)" style="rounded=1;whiteSpace=wrap;html=1;" vertex="1" parent="1">
          <mxGeometry x="610" y="240" width="120" height="60" as="geometry" />
        </mxCell>
        <mxCell id="WxAXNizd0CbYhBNLPztv-26" style="edgeStyle=orthogonalEdgeStyle;rounded=0;orthogonalLoop=1;jettySize=auto;html=1;exitX=0.5;exitY=1;exitDx=0;exitDy=0;entryX=0.5;entryY=0;entryDx=0;entryDy=0;" edge="1" parent="1" source="WxAXNizd0CbYhBNLPztv-13" target="WxAXNizd0CbYhBNLPztv-25">
          <mxGeometry relative="1" as="geometry" />
        </mxCell>
        <mxCell id="WxAXNizd0CbYhBNLPztv-13" value="RC=01&lt;br&gt;(getOTP)" style="rounded=1;whiteSpace=wrap;html=1;" vertex="1" parent="1">
          <mxGeometry x="610" y="390" width="120" height="60" as="geometry" />
        </mxCell>
        <mxCell id="WxAXNizd0CbYhBNLPztv-14" value="HomeActivivty()" style="rounded=1;whiteSpace=wrap;html=1;" vertex="1" parent="1">
          <mxGeometry x="610" y="100" width="120" height="60" as="geometry" />
        </mxCell>
        <mxCell id="WxAXNizd0CbYhBNLPztv-27" style="edgeStyle=orthogonalEdgeStyle;rounded=0;orthogonalLoop=1;jettySize=auto;html=1;exitX=0.5;exitY=1;exitDx=0;exitDy=0;entryX=1;entryY=0.5;entryDx=0;entryDy=0;" edge="1" parent="1" source="WxAXNizd0CbYhBNLPztv-25" target="WxAXNizd0CbYhBNLPztv-30">
          <mxGeometry relative="1" as="geometry">
            <mxPoint x="405" y="310" as="targetPoint" />
          </mxGeometry>
        </mxCell>
        <mxCell id="WxAXNizd0CbYhBNLPztv-25" value="VerifyOtp()" style="rounded=1;whiteSpace=wrap;html=1;" vertex="1" parent="1">
          <mxGeometry x="610" y="470" width="120" height="60" as="geometry" />
        </mxCell>
        <mxCell id="WxAXNizd0CbYhBNLPztv-32" style="edgeStyle=orthogonalEdgeStyle;rounded=0;orthogonalLoop=1;jettySize=auto;html=1;exitX=0.5;exitY=1;exitDx=0;exitDy=0;" edge="1" parent="1" source="WxAXNizd0CbYhBNLPztv-30" target="WxAXNizd0CbYhBNLPztv-31">
          <mxGeometry relative="1" as="geometry" />
        </mxCell>
        <mxCell id="WxAXNizd0CbYhBNLPztv-33" style="edgeStyle=orthogonalEdgeStyle;rounded=0;orthogonalLoop=1;jettySize=auto;html=1;exitX=0;exitY=0.5;exitDx=0;exitDy=0;entryX=0.5;entryY=0;entryDx=0;entryDy=0;" edge="1" parent="1" source="WxAXNizd0CbYhBNLPztv-30" target="WxAXNizd0CbYhBNLPztv-10">
          <mxGeometry relative="1" as="geometry">
            <Array as="points">
              <mxPoint x="110" y="577" />
              <mxPoint x="110" y="20" />
              <mxPoint x="510" y="20" />
            </Array>
          </mxGeometry>
        </mxCell>
        <mxCell id="WxAXNizd0CbYhBNLPztv-30" value="changeDevice()&lt;br&gt;json.put(&quot;idAccount)&lt;br&gt;json.put(&quot;otp&quot;)" style="rhombus;whiteSpace=wrap;html=1;" vertex="1" parent="1">
          <mxGeometry x="420" y="510" width="180" height="135" as="geometry" />
        </mxCell>
        <mxCell id="WxAXNizd0CbYhBNLPztv-31" value="BlockAccount()" style="rounded=1;whiteSpace=wrap;html=1;" vertex="1" parent="1">
          <mxGeometry x="450" y="680" width="120" height="60" as="geometry" />
        </mxCell>
      </root>
    </mxGraphModel>
  </diagram>
</mxfile>
